<?xml version="1.0" encoding="UTF-8" standalone="no"?>
<svg
   xmlns:dc="http://purl.org/dc/elements/1.1/"
   xmlns:cc="http://creativecommons.org/ns#"
   xmlns:rdf="http://www.w3.org/1999/02/22-rdf-syntax-ns#"
   xmlns:svg="http://www.w3.org/2000/svg"
   xmlns="http://www.w3.org/2000/svg"
   width="100%"
   height="100%"
   viewBox="0 0 64 64"
   version="1.1"
   xml:space="preserve"
   style="fill-rule:evenodd;clip-rule:evenodd;stroke-linecap:round;stroke-linejoin:round;stroke-miterlimit:2;"
   id="svg9">
  <metadata
   id="metadata15">
    <rdf:RDF>
      <cc:Work
   rdf:about="">
        <dc:format>image/svg+xml</dc:format>

        <dc:type
   rdf:resource="http://purl.org/dc/dcmitype/StillImage" />

      </cc:Work>

    </rdf:RDF>

  </metadata>

  <defs
   id="defs13" />

  
  <path
   d="M52.5,7l-33.5,0c-1.061,0 -2.078,0.421 -2.828,1.172c-0.751,0.75 -1.172,1.767 -1.172,2.828c0,9.366 0,32.634 0,42c0,1.061 0.421,2.078 1.172,2.828c0.75,0.751 1.767,1.172 2.828,1.172c6.543,0 19.457,0 26,0c1.061,0 2.078,-0.421 2.828,-1.172c0.751,-0.75 1.172,-1.767 1.172,-2.828c0,-9.538 0,-33.49 0,-42.5c0,-1.933 1.567,-3.5 3.5,-3.5c0.928,0 1.818,0.369 2.475,1.025c0.656,0.657 1.025,1.547 1.025,2.475c0,4.17 0,11.121 0,15.5c0,2.209 -1.791,4 -4,4c-1.523,0 -2.9,0 -2.9,0"
   style="fill:none;stroke:#222a33;stroke-width:2px;"
   id="path3" />

  <path
   d="M41,25.008c0,-0.813 -0.392,-1.577 -1.052,-2.051c-0.661,-0.474 -1.51,-0.601 -2.28,-0.341c-0.001,0 -0.001,0 -0.001,0c-1.331,0.449 -2.776,0.425 -4.091,-0.068c-0.601,-0.226 -1.073,-0.403 -1.073,-0.403c-0.324,-0.121 -0.682,-0.121 -1.006,0c0,0 -0.472,0.177 -1.073,0.403c-1.315,0.493 -2.76,0.517 -4.091,0.068c0,0 0,0 -0.001,0c-0.77,-0.26 -1.619,-0.133 -2.28,0.341c-0.66,0.474 -1.052,1.238 -1.052,2.051c0,1.942 0,5.353 0,7.868c0,2.46 1.281,4.743 3.38,6.025c2.094,1.278 4.644,2.835 4.644,2.835c0.447,0.273 1.007,0.28 1.461,0.019c0,0 2.742,-1.575 4.973,-2.858c2.191,-1.259 3.542,-3.593 3.542,-6.12l0,-7.769Z"
   style="fill:none;stroke:#222a33;stroke-width:2px;stroke-linecap:butt;"
   id="path5" />

  <path
   d="M29.596,31.619l2.262,1.809l3.619,-3.167"
   style="fill:none;stroke:#222a33;stroke-width:2px;"
   id="path7" />

</svg>
