<svg xmlns="http://www.w3.org/2000/svg" viewBox="0 0 64 64" xml:space="preserve" style="fill-rule:evenodd;clip-rule:evenodd;stroke-linecap:round;stroke-linejoin:round;stroke-miterlimit:2">
  <!-- First path for the box structure -->
  <path d="M52.5 7H19a4 4 0 0 0-4 4v40a4 4 0 0 0 4 4h1" style="fill:none;stroke:#222a33;stroke-width:2px"/>
  
  <!-- Second path for the lines and curves -->
  <path d="M39.5 55H45a3.995 3.995 0 0 0 2.828-1.172A3.995 3.995 0 0 0 49 51V10.5A3.503 3.503 0 0 1 52.5 7a3.503 3.503 0 0 1 3.5 3.5V26a4 4 0 0 1-4 4h-2.9M22 16h18M22 22.054h18M22 28h18M22 34h18" style="fill:none;stroke:#222a33;stroke-width:2px"/>

  <!-- Third path for the bottom part with a tick mark -->
  <path d="M40 44.5a3 3 0 0 0-3-3H27a3 3 0 0 0-3 3v7.051a7.5 7.5 0 0 0 4.425 6.841L32 60l3.575-1.608A7.5 7.5 0 0 0 40 51.551V44.5z" style="fill:none;stroke:#222a33;stroke-width:2px"/>

  <!-- Fourth path for the tick mark, with background fill -->
  <path d="m28.75 50.248 2.5 2 4-3.5" style="fill:#c4f0c5;stroke:#222a33;stroke-width:2px"/>
</svg>
